<svg xmlns="http://www.w3.org/2000/svg" xmlns:xlink="http://www.w3.org/1999/xlink" width="500" zoomAndPan="magnify" viewBox="0 0 375 374.999991" height="500" preserveAspectRatio="xMidYMid meet" version="1.0"><defs><g/><clipPath id="41a9fd9264"><path d="M 143.636719 116.148438 L 231.386719 116.148438 L 231.386719 175 L 143.636719 175 Z M 143.636719 116.148438 " clip-rule="nonzero"/></clipPath><clipPath id="b24e8a3b7f"><path d="M 168 181 L 207 181 L 207 192.648438 L 168 192.648438 Z M 168 181 " clip-rule="nonzero"/></clipPath></defs><rect x="-37.5" width="450" fill="#ffffff" y="-37.499999" height="449.999989" fill-opacity="1"/><rect x="-37.5" width="450" fill="#ffffff" y="-37.499999" height="449.999989" fill-opacity="1"/><rect x="-37.5" width="450" fill="#2b2b2b" y="-37.499999" height="449.999989" fill-opacity="1"/><g clip-path="url(#41a9fd9264)"><path fill="#ffffff" d="M 149.480469 118.566406 C 147.671875 118.566406 146.195312 120.039062 146.195312 121.84375 L 146.195312 168.527344 C 146.195312 170.339844 147.671875 171.808594 149.480469 171.808594 L 225.667969 171.808594 C 227.476562 171.808594 228.949219 170.339844 228.949219 168.527344 L 228.949219 121.84375 C 228.949219 120.039062 227.476562 118.566406 225.667969 118.566406 Z M 225.667969 174.261719 L 149.480469 174.261719 C 146.316406 174.261719 143.738281 171.691406 143.738281 168.527344 L 143.738281 121.84375 C 143.738281 118.683594 146.316406 116.109375 149.480469 116.109375 L 225.667969 116.109375 C 228.832031 116.109375 231.410156 118.683594 231.410156 121.84375 L 231.410156 168.527344 C 231.410156 171.691406 228.832031 174.261719 225.667969 174.261719 " fill-opacity="1" fill-rule="nonzero"/></g><path fill="#ffffff" d="M 230.179688 164.183594 L 144.96875 164.183594 L 144.96875 161.730469 L 230.179688 161.730469 L 230.179688 164.183594 " fill-opacity="1" fill-rule="nonzero"/><path fill="#ffffff" d="M 178.128906 182.816406 L 175.714844 182.355469 L 177.550781 172.804688 L 179.960938 173.265625 L 178.128906 182.816406 " fill-opacity="1" fill-rule="nonzero"/><path fill="#ffffff" d="M 197.027344 182.816406 L 195.195312 173.265625 L 197.605469 172.804688 L 199.441406 182.355469 L 197.027344 182.816406 " fill-opacity="1" fill-rule="nonzero"/><g clip-path="url(#b24e8a3b7f)"><path fill="#ffffff" d="M 174.332031 183.8125 C 172.59375 183.8125 171.183594 185.222656 171.183594 186.960938 C 171.183594 188.695312 172.59375 190.109375 174.332031 190.109375 L 200.8125 190.109375 C 202.550781 190.109375 203.964844 188.695312 203.964844 186.960938 C 203.964844 185.222656 202.550781 183.8125 200.8125 183.8125 Z M 200.8125 192.566406 L 174.332031 192.566406 C 171.242188 192.566406 168.726562 190.054688 168.726562 186.960938 C 168.726562 183.871094 171.242188 181.355469 174.332031 181.355469 L 200.8125 181.355469 C 203.90625 181.355469 206.421875 183.871094 206.421875 186.960938 C 206.421875 190.054688 203.90625 192.566406 200.8125 192.566406 " fill-opacity="1" fill-rule="nonzero"/></g><path fill="#ffffff" d="M 179.644531 150.667969 C 179.320312 150.667969 179 150.542969 178.757812 150.292969 C 178.730469 150.261719 173.542969 144.769531 171.976562 143.113281 C 171.285156 142.382812 171.285156 141.234375 171.976562 140.5 L 178.75 133.328125 C 179.21875 132.835938 179.992188 132.808594 180.488281 133.28125 C 180.980469 133.746094 181.007812 134.523438 180.539062 135.015625 L 174.121094 141.808594 C 175.980469 143.777344 180.449219 148.503906 180.535156 148.597656 C 181 149.085938 180.980469 149.863281 180.492188 150.328125 C 180.253906 150.558594 179.949219 150.667969 179.644531 150.667969 " fill-opacity="1" fill-rule="nonzero"/><path fill="#ffffff" d="M 201.378906 142.183594 L 201.394531 142.183594 Z M 195.503906 150.667969 C 195.195312 150.667969 194.894531 150.558594 194.65625 150.328125 C 194.164062 149.863281 194.144531 149.085938 194.613281 148.597656 C 194.699219 148.503906 199.167969 143.769531 201.023438 141.808594 L 194.605469 135.015625 C 194.140625 134.523438 194.164062 133.746094 194.660156 133.28125 C 195.152344 132.808594 195.925781 132.835938 196.398438 133.328125 L 203.171875 140.5 C 203.863281 141.234375 203.863281 142.382812 203.171875 143.113281 C 201.605469 144.769531 196.417969 150.261719 196.386719 150.292969 C 196.148438 150.542969 195.824219 150.667969 195.503906 150.667969 " fill-opacity="1" fill-rule="nonzero"/><path fill="#ffffff" d="M 185.144531 153.015625 C 185.046875 153.015625 184.949219 153.003906 184.851562 152.980469 C 184.1875 152.820312 183.785156 152.15625 183.945312 151.5 L 188.8125 131.535156 C 188.976562 130.878906 189.636719 130.46875 190.296875 130.632812 C 190.957031 130.796875 191.363281 131.457031 191.203125 132.121094 L 186.335938 152.078125 C 186.199219 152.640625 185.695312 153.015625 185.144531 153.015625 " fill-opacity="1" fill-rule="nonzero"/><g fill="#ffffff" fill-opacity="1"><g transform="translate(100.195761, 227.111308)"><g><path d="M 15.957031 -22.433594 L 15.957031 -20.015625 L 17.496094 -20.015625 L 5.84375 -9.660156 L 5.84375 -20.015625 L 7.453125 -19.980469 L 7.453125 -22.433594 L 1.191406 -22.464844 L 1.191406 -20.015625 L 2.765625 -20.015625 L 2.765625 -2.449219 L 1.191406 -2.449219 L 1.191406 0 L 7.453125 0 L 7.453125 -2.449219 L 5.84375 -2.449219 L 5.84375 -6.648438 L 11.023438 -11.164062 L 19.386719 0 L 22.851562 0 L 22.851562 -2.449219 L 21.171875 -2.449219 L 13.226562 -13.089844 L 21.171875 -20.015625 L 22.78125 -20.015625 L 22.78125 -22.433594 Z M 15.957031 -22.433594 "/></g></g></g><g fill="#ffffff" fill-opacity="1"><g transform="translate(125.915463, 227.111308)"><g><path d="M 12.632812 -20.472656 C 18.023438 -20.472656 20.332031 -16.34375 20.332031 -11.234375 C 20.332031 -6.125 18.023438 -1.960938 12.632812 -1.960938 C 7.207031 -1.960938 4.933594 -6.125 4.933594 -11.234375 C 4.933594 -16.34375 7.207031 -20.472656 12.632812 -20.472656 Z M 12.632812 -22.957031 C 5.355469 -22.957031 1.855469 -17.707031 1.855469 -11.234375 C 1.855469 -4.757812 5.355469 0.453125 12.632812 0.453125 C 19.914062 0.453125 23.375 -4.757812 23.375 -11.234375 C 23.375 -17.707031 19.914062 -22.957031 12.632812 -22.957031 Z M 12.632812 -22.957031 "/></g></g></g><g fill="#ffffff" fill-opacity="1"><g transform="translate(153.524744, 227.111308)"><g><path d="M 1.261719 -22.433594 L 1.261719 -20.015625 L 2.835938 -20.015625 L 2.835938 -2.449219 L 1.261719 -2.449219 L 1.261719 0 L 17.601562 0 L 17.601562 -4.199219 L 15.398438 -4.199219 L 15.292969 -2.449219 L 5.914062 -2.449219 L 5.914062 -20.015625 L 7.488281 -20.015625 L 7.488281 -22.433594 Z M 1.261719 -22.433594 "/></g></g></g><g fill="#ffffff" fill-opacity="1"><g transform="translate(174.135598, 227.111308)"><g><path d="M 12.632812 -20.472656 C 18.023438 -20.472656 20.332031 -16.34375 20.332031 -11.234375 C 20.332031 -6.125 18.023438 -1.960938 12.632812 -1.960938 C 7.207031 -1.960938 4.933594 -6.125 4.933594 -11.234375 C 4.933594 -16.34375 7.207031 -20.472656 12.632812 -20.472656 Z M 12.632812 -22.957031 C 5.355469 -22.957031 1.855469 -17.707031 1.855469 -11.234375 C 1.855469 -4.757812 5.355469 0.453125 12.632812 0.453125 C 19.914062 0.453125 23.375 -4.757812 23.375 -11.234375 C 23.375 -17.707031 19.914062 -22.957031 12.632812 -22.957031 Z M 12.632812 -22.957031 "/></g></g></g><g fill="#ffffff" fill-opacity="1"><g transform="translate(201.74488, 227.111308)"><g><path d="M 0.664062 -22.433594 L 0.664062 -20.015625 L 2.34375 -20.015625 L 10.671875 0 L 13.929688 0 L 22.257812 -20.015625 L 23.9375 -20.015625 L 23.9375 -22.433594 L 17.253906 -22.433594 L 17.253906 -20.015625 L 19.039062 -20.015625 L 12.285156 -3.324219 L 5.527344 -20.015625 L 7.347656 -20.015625 L 7.347656 -22.433594 Z M 0.664062 -22.433594 "/></g></g></g><g fill="#ffffff" fill-opacity="1"><g transform="translate(228.654309, 227.111308)"><g><path d="M 12.632812 -20.472656 C 18.023438 -20.472656 20.332031 -16.34375 20.332031 -11.234375 C 20.332031 -6.125 18.023438 -1.960938 12.632812 -1.960938 C 7.207031 -1.960938 4.933594 -6.125 4.933594 -11.234375 C 4.933594 -16.34375 7.207031 -20.472656 12.632812 -20.472656 Z M 12.632812 -22.957031 C 5.355469 -22.957031 1.855469 -17.707031 1.855469 -11.234375 C 1.855469 -4.757812 5.355469 0.453125 12.632812 0.453125 C 19.914062 0.453125 23.375 -4.757812 23.375 -11.234375 C 23.375 -17.707031 19.914062 -22.957031 12.632812 -22.957031 Z M 12.632812 -22.957031 "/></g></g></g><g fill="#ffffff" fill-opacity="1"><g transform="translate(256.263591, 227.111308)"><g><path d="M 16.484375 -16.097656 L 16.484375 -18.757812 C 16.484375 -18.757812 14.171875 -22.957031 8.75 -22.957031 C 4.445312 -22.957031 1.644531 -20.578125 1.644531 -16.832031 C 1.644531 -14.488281 2.835938 -13.019531 5.597656 -11.546875 L 12.109375 -8.050781 C 13.824219 -7.105469 14.3125 -6.089844 14.3125 -4.898438 C 14.3125 -2.90625 12.5625 -1.714844 9.972656 -1.714844 C 6.402344 -1.714844 4.550781 -3.710938 3.78125 -4.828125 L 3.710938 -6.367188 L 1.644531 -6.367188 L 1.644531 -3.746094 C 1.644531 -3.746094 3.988281 0.453125 9.902344 0.453125 C 14.242188 0.453125 17.359375 -1.644531 17.359375 -5.390625 C 17.359375 -7.664062 16.273438 -9.34375 13.71875 -10.707031 L 7.035156 -14.242188 C 5.460938 -15.152344 4.6875 -16.027344 4.6875 -17.359375 C 4.6875 -19.457031 6.300781 -20.71875 8.820312 -20.71875 C 11.511719 -20.71875 13.332031 -19.175781 14.277344 -18.058594 L 14.382812 -16.097656 Z M 16.484375 -16.097656 "/></g></g></g><g fill="#ffffff" fill-opacity="1"><g transform="translate(78.768749, 252.852655)"><g><path d="M 0.285156 -9.613281 L 0.285156 -8.324219 L 1.003906 -8.324219 L 3.855469 0 L 5.566406 0 L 7.90625 -7.859375 L 10.246094 0 L 11.96875 0 L 14.820312 -8.324219 L 15.539062 -8.324219 L 15.539062 -9.613281 L 12.316406 -9.613281 L 12.316406 -8.324219 L 13.078125 -8.324219 L 11.039062 -2.160156 L 8.746094 -9.613281 L 7.066406 -9.613281 L 4.785156 -2.160156 L 2.730469 -8.324219 L 3.511719 -8.324219 L 3.511719 -9.613281 Z M 0.285156 -9.613281 "/></g></g></g><g fill="#ffffff" fill-opacity="1"><g transform="translate(100.038734, 252.852655)"><g><path d="M 0.480469 -9.613281 L 0.480469 -8.324219 L 1.171875 -8.324219 L 1.171875 -1.304688 L 0.480469 -1.304688 L 0.480469 0 L 7.769531 0 L 7.769531 -2.070312 L 6.601562 -2.070312 L 6.539062 -1.304688 L 2.820312 -1.304688 L 2.820312 -4.15625 L 5.714844 -4.15625 L 5.714844 -5.460938 L 2.820312 -5.460938 L 2.820312 -8.324219 L 6.539062 -8.324219 L 6.601562 -7.558594 L 7.769531 -7.558594 L 7.769531 -9.613281 Z M 0.480469 -9.613281 "/></g></g></g><g fill="#ffffff" fill-opacity="1"><g transform="translate(113.538731, 252.852655)"><g><path d="M 2.820312 -1.304688 L 2.820312 -4.335938 L 5.128906 -4.335938 C 6.089844 -4.335938 6.808594 -3.796875 6.808594 -2.820312 C 6.808594 -1.84375 6.089844 -1.304688 5.128906 -1.304688 Z M 0.480469 -9.613281 L 0.480469 -8.324219 L 1.171875 -8.324219 L 1.171875 -1.304688 L 0.480469 -1.304688 L 0.480469 0 L 5.578125 0 C 7.230469 0 8.460938 -1.019531 8.460938 -2.59375 C 8.460938 -3.855469 7.695312 -4.664062 6.675781 -4.996094 C 7.335938 -5.445312 7.769531 -6.164062 7.769531 -7.035156 C 7.769531 -8.460938 6.601562 -9.613281 4.949219 -9.613281 Z M 2.820312 -5.296875 L 2.820312 -8.324219 L 4.5 -8.324219 C 5.535156 -8.324219 6.121094 -7.605469 6.121094 -6.808594 C 6.121094 -5.941406 5.339844 -5.296875 4.5 -5.296875 Z M 2.820312 -5.296875 "/></g></g></g><g fill="#ffffff" fill-opacity="1"><g transform="translate(127.863717, 252.852655)"><g/></g></g><g fill="#ffffff" fill-opacity="1"><g transform="translate(137.463719, 252.852655)"><g><path d="M 5.28125 -8.324219 C 7.441406 -8.324219 8.308594 -6.75 8.308594 -4.816406 C 8.308594 -2.878906 7.441406 -1.304688 5.28125 -1.304688 L 2.820312 -1.304688 L 2.820312 -8.324219 Z M 0.480469 -9.613281 L 0.480469 -8.324219 L 1.171875 -8.324219 L 1.171875 -1.304688 L 0.480469 -1.304688 L 0.480469 0 L 5.488281 0 C 8.535156 0 9.960938 -2.160156 9.960938 -4.816406 C 9.960938 -7.46875 8.535156 -9.613281 5.488281 -9.613281 Z M 0.480469 -9.613281 "/></g></g></g><g fill="#ffffff" fill-opacity="1"><g transform="translate(153.633704, 252.852655)"><g><path d="M 0.480469 -9.613281 L 0.480469 -8.324219 L 1.171875 -8.324219 L 1.171875 -1.304688 L 0.480469 -1.304688 L 0.480469 0 L 7.769531 0 L 7.769531 -2.070312 L 6.601562 -2.070312 L 6.539062 -1.304688 L 2.820312 -1.304688 L 2.820312 -4.15625 L 5.714844 -4.15625 L 5.714844 -5.460938 L 2.820312 -5.460938 L 2.820312 -8.324219 L 6.539062 -8.324219 L 6.601562 -7.558594 L 7.769531 -7.558594 L 7.769531 -9.613281 Z M 0.480469 -9.613281 "/></g></g></g><g fill="#ffffff" fill-opacity="1"><g transform="translate(167.133703, 252.852655)"><g><path d="M 0.285156 -9.613281 L 0.285156 -8.324219 L 1.003906 -8.324219 L 4.46875 0 L 6.179688 0 L 9.660156 -8.324219 L 10.378906 -8.324219 L 10.378906 -9.613281 L 7.15625 -9.613281 L 7.15625 -8.324219 L 7.933594 -8.324219 L 5.324219 -1.828125 L 2.730469 -8.324219 L 3.511719 -8.324219 L 3.511719 -9.613281 Z M 0.285156 -9.613281 "/></g></g></g><g fill="#ffffff" fill-opacity="1"><g transform="translate(183.243699, 252.852655)"><g><path d="M 0.480469 -9.613281 L 0.480469 -8.324219 L 1.171875 -8.324219 L 1.171875 -1.304688 L 0.480469 -1.304688 L 0.480469 0 L 7.769531 0 L 7.769531 -2.070312 L 6.601562 -2.070312 L 6.539062 -1.304688 L 2.820312 -1.304688 L 2.820312 -4.15625 L 5.714844 -4.15625 L 5.714844 -5.460938 L 2.820312 -5.460938 L 2.820312 -8.324219 L 6.539062 -8.324219 L 6.601562 -7.558594 L 7.769531 -7.558594 L 7.769531 -9.613281 Z M 0.480469 -9.613281 "/></g></g></g><g fill="#ffffff" fill-opacity="1"><g transform="translate(196.743698, 252.852655)"><g><path d="M 0.480469 -9.613281 L 0.480469 -8.324219 L 1.171875 -8.324219 L 1.171875 -1.304688 L 0.480469 -1.304688 L 0.480469 0 L 7.769531 0 L 7.769531 -2.070312 L 6.601562 -2.070312 L 6.539062 -1.304688 L 2.820312 -1.304688 L 2.820312 -8.324219 L 3.511719 -8.324219 L 3.511719 -9.613281 Z M 0.480469 -9.613281 "/></g></g></g><g fill="#ffffff" fill-opacity="1"><g transform="translate(210.243697, 252.852655)"><g><path d="M 5.488281 -8.519531 C 7.679688 -8.519531 8.59375 -6.871094 8.59375 -4.816406 C 8.59375 -2.761719 7.679688 -1.09375 5.488281 -1.09375 C 3.285156 -1.09375 2.398438 -2.761719 2.398438 -4.816406 C 2.398438 -6.871094 3.285156 -8.519531 5.488281 -8.519531 Z M 5.488281 -9.839844 C 2.28125 -9.839844 0.75 -7.589844 0.75 -4.816406 C 0.75 -2.039062 2.28125 0.195312 5.488281 0.195312 C 8.699219 0.195312 10.246094 -2.039062 10.246094 -4.816406 C 10.246094 -7.589844 8.699219 -9.839844 5.488281 -9.839844 Z M 5.488281 -9.839844 "/></g></g></g><g fill="#ffffff" fill-opacity="1"><g transform="translate(226.698686, 252.852655)"><g><path d="M 3.433594 0 L 3.433594 -1.304688 L 2.820312 -1.304688 L 2.820312 -3.644531 L 5.640625 -3.644531 C 7.214844 -3.644531 8.460938 -4.769531 8.460938 -6.644531 C 8.460938 -8.519531 7.214844 -9.613281 5.640625 -9.613281 L 0.480469 -9.613281 L 0.480469 -8.324219 L 1.171875 -8.324219 L 1.171875 -1.304688 L 0.480469 -1.304688 L 0.480469 0 Z M 2.820312 -4.949219 L 2.820312 -8.324219 L 5.191406 -8.324219 C 6.164062 -8.324219 6.808594 -7.648438 6.808594 -6.644531 C 6.808594 -5.625 6.148438 -4.949219 5.191406 -4.949219 Z M 2.820312 -4.949219 "/></g></g></g><g fill="#ffffff" fill-opacity="1"><g transform="translate(240.888684, 252.852655)"><g><path d="M 3.03125 -9.613281 L 0.480469 -9.628906 L 0.480469 -8.324219 L 1.171875 -8.324219 L 1.171875 -1.304688 L 0.480469 -1.304688 L 0.480469 0 L 3.511719 0 L 3.511719 -1.304688 L 2.820312 -1.304688 L 2.820312 -7.5 L 5.640625 -3.015625 L 6.179688 -3.015625 L 9.015625 -7.5 L 9.015625 -1.304688 L 8.308594 -1.304688 L 8.308594 0 L 11.339844 0 L 11.339844 -1.304688 L 10.664062 -1.304688 L 10.664062 -8.324219 L 11.339844 -8.324219 L 11.339844 -9.613281 L 8.804688 -9.613281 L 5.910156 -4.921875 Z M 3.03125 -9.613281 "/></g></g></g><g fill="#ffffff" fill-opacity="1"><g transform="translate(258.168678, 252.852655)"><g><path d="M 0.480469 -9.613281 L 0.480469 -8.324219 L 1.171875 -8.324219 L 1.171875 -1.304688 L 0.480469 -1.304688 L 0.480469 0 L 7.769531 0 L 7.769531 -2.070312 L 6.601562 -2.070312 L 6.539062 -1.304688 L 2.820312 -1.304688 L 2.820312 -4.15625 L 5.714844 -4.15625 L 5.714844 -5.460938 L 2.820312 -5.460938 L 2.820312 -8.324219 L 6.539062 -8.324219 L 6.601562 -7.558594 L 7.769531 -7.558594 L 7.769531 -9.613281 Z M 0.480469 -9.613281 "/></g></g></g><g fill="#ffffff" fill-opacity="1"><g transform="translate(271.668677, 252.852655)"><g><path d="M 7.636719 -2.714844 L 2.476562 -9.613281 L 0.480469 -9.628906 L 0.480469 -8.324219 L 1.171875 -8.324219 L 1.171875 -1.304688 L 0.480469 -1.304688 L 0.480469 0 L 3.511719 0 L 3.511719 -1.304688 L 2.820312 -1.304688 L 2.820312 -6.898438 L 7.980469 0 L 9.285156 0 L 9.285156 -8.324219 L 9.960938 -8.324219 L 9.960938 -9.613281 L 6.945312 -9.628906 L 6.945312 -8.324219 L 7.636719 -8.324219 Z M 7.636719 -2.714844 "/></g></g></g><g fill="#ffffff" fill-opacity="1"><g transform="translate(287.583654, 252.852655)"><g><path d="M 0.285156 -9.628906 L 0.285156 -7.425781 L 1.515625 -7.425781 L 1.574219 -8.308594 L 3.511719 -8.324219 L 3.511719 -1.304688 L 2.820312 -1.304688 L 2.820312 0 L 5.835938 0 L 5.835938 -1.304688 L 5.160156 -1.304688 L 5.160156 -8.324219 L 7.078125 -8.308594 L 7.15625 -7.425781 L 8.386719 -7.425781 L 8.386719 -9.613281 Z M 0.285156 -9.628906 "/></g></g></g></svg>