<svg xmlns="http://www.w3.org/2000/svg" xmlns:xlink="http://www.w3.org/1999/xlink" width="500" zoomAndPan="magnify" viewBox="0 0 375 374.999991" height="500" preserveAspectRatio="xMidYMid meet" version="1.0"><defs><g/></defs><rect x="-37.5" width="450" fill="#ffffff" y="-37.499999" height="449.999989" fill-opacity="1"/><rect x="-37.5" width="450" fill="#2b2b2b" y="-37.499999" height="449.999989" fill-opacity="1"/><g fill="#525050" fill-opacity="1"><g transform="translate(182.894118, 245.708293)"><g><path d="M 108.03125 -14.171875 C 109.488281 -10.578125 111.085938 -7.90625 112.828125 -6.15625 C 114.578125 -4.414062 116.296875 -3.488281 117.984375 -3.375 L 117.984375 0 C 109.878906 -0.332031 99.640625 -0.5 87.265625 -0.5 C 74.441406 -0.5 64.988281 -0.332031 58.90625 0 L 58.90625 -3.375 C 63.1875 -3.601562 66.222656 -4.140625 68.015625 -4.984375 C 69.816406 -5.828125 70.71875 -7.316406 70.71875 -9.453125 C 70.71875 -11.472656 70.046875 -14.175781 68.703125 -17.5625 L 58.734375 -45.234375 L 24.640625 -45.234375 L 21.78125 -37.640625 C 18.0625 -28.078125 16.203125 -20.765625 16.203125 -15.703125 C 16.203125 -11.085938 17.492188 -7.9375 20.078125 -6.25 C 22.671875 -4.5625 26.5 -3.601562 31.5625 -3.375 L 31.5625 0 C 23.125 -0.332031 15.753906 -0.5 9.453125 -0.5 C 4.160156 -0.5 -0.171875 -0.332031 -3.546875 0 L -3.546875 -3.375 C -0.734375 -3.820312 1.910156 -5.566406 4.390625 -8.609375 C 6.867188 -11.648438 9.398438 -16.488281 11.984375 -23.125 L 49.453125 -119.515625 C 53.054688 -119.285156 56.039062 -119.171875 58.40625 -119.171875 C 60.65625 -119.171875 63.582031 -119.285156 67.1875 -119.515625 Z M 57.5625 -48.609375 L 42.203125 -90.8125 L 26 -48.609375 Z M 57.5625 -48.609375 "/></g></g></g><g fill="#846d62" fill-opacity="1"><g transform="translate(95.138249, 246.200461)"><g><path d="M 69.875 -121.875 C 76.632812 -121.875 82.375 -120.914062 87.09375 -119 C 91.820312 -117.082031 96.4375 -114.382812 100.9375 -110.90625 C 102.0625 -109.882812 103.128906 -109.375 104.140625 -109.375 C 106.398438 -109.375 107.863281 -112.753906 108.53125 -119.515625 L 112.421875 -119.515625 C 111.972656 -111.523438 111.75 -97.457031 111.75 -77.3125 L 107.859375 -77.3125 C 107.066406 -86.3125 105.601562 -93.398438 103.46875 -98.578125 C 101.332031 -103.753906 97.617188 -108.085938 92.328125 -111.578125 C 87.035156 -114.953125 81.804688 -116.640625 76.640625 -116.640625 C 64.929688 -116.640625 56.710938 -111.007812 51.984375 -99.75 C 47.265625 -88.5 44.90625 -75.054688 44.90625 -59.421875 C 44.90625 -43.773438 47.265625 -30.320312 51.984375 -19.0625 C 56.710938 -7.8125 64.929688 -2.1875 76.640625 -2.1875 C 81.804688 -2.1875 87.035156 -3.878906 92.328125 -7.265625 C 97.617188 -10.523438 101.332031 -14.910156 103.46875 -20.421875 C 105.601562 -25.941406 107.066406 -33.765625 107.859375 -43.890625 L 111.75 -43.890625 C 111.75 -22.847656 111.972656 -8.21875 112.421875 0 L 108.53125 0 C 108.195312 -3.601562 107.71875 -6.160156 107.09375 -7.671875 C 106.476562 -9.191406 105.609375 -9.953125 104.484375 -9.953125 C 103.585938 -9.953125 102.40625 -9.503906 100.9375 -8.609375 C 95.875 -5.003906 91.035156 -2.273438 86.421875 -0.421875 C 81.804688 1.429688 76.238281 2.359375 69.71875 2.359375 C 57 2.359375 45.851562 -0.0546875 36.28125 -4.890625 C 26.71875 -9.734375 19.289062 -16.738281 14 -25.90625 C 8.71875 -35.082031 6.078125 -46.023438 6.078125 -58.734375 C 6.078125 -71.117188 8.773438 -82.09375 14.171875 -91.65625 C 19.578125 -101.21875 27.117188 -108.644531 36.796875 -113.9375 C 46.472656 -119.226562 57.5 -121.875 69.875 -121.875 Z M 69.875 -121.875 "/></g></g></g><path fill="#2b2b2b" d="M 87.878906 180.875 L 287.277344 180.875 L 287.277344 210.675781 L 87.878906 210.675781 L 87.878906 180.875 " fill-opacity="1" fill-rule="nonzero"/><g fill="#ddc6a4" fill-opacity="1"><g transform="translate(101.162331, 201.024832)"><g><path d="M 1.296875 0 L 1.296875 -10.734375 L 5.046875 -10.734375 C 5.796875 -10.734375 6.410156 -10.601562 6.890625 -10.34375 C 7.378906 -10.082031 7.742188 -9.734375 7.984375 -9.296875 C 8.222656 -8.867188 8.34375 -8.394531 8.34375 -7.875 C 8.34375 -7.414062 8.257812 -7.035156 8.09375 -6.734375 C 7.925781 -6.429688 7.710938 -6.191406 7.453125 -6.015625 C 7.191406 -5.847656 6.90625 -5.722656 6.59375 -5.640625 L 6.59375 -5.53125 C 6.925781 -5.507812 7.257812 -5.394531 7.59375 -5.1875 C 7.925781 -4.976562 8.203125 -4.675781 8.421875 -4.28125 C 8.640625 -3.894531 8.75 -3.414062 8.75 -2.84375 C 8.75 -2.3125 8.628906 -1.828125 8.390625 -1.390625 C 8.148438 -0.960938 7.765625 -0.625 7.234375 -0.375 C 6.703125 -0.125 6.015625 0 5.171875 0 Z M 2.59375 -1.15625 L 5.171875 -1.15625 C 6.023438 -1.15625 6.628906 -1.316406 6.984375 -1.640625 C 7.335938 -1.972656 7.515625 -2.375 7.515625 -2.84375 C 7.515625 -3.207031 7.421875 -3.546875 7.234375 -3.859375 C 7.054688 -4.171875 6.796875 -4.414062 6.453125 -4.59375 C 6.109375 -4.78125 5.703125 -4.875 5.234375 -4.875 L 2.59375 -4.875 Z M 2.59375 -6.015625 L 5 -6.015625 C 5.59375 -6.015625 6.09375 -6.179688 6.5 -6.515625 C 6.90625 -6.859375 7.109375 -7.3125 7.109375 -7.875 C 7.109375 -8.34375 6.941406 -8.742188 6.609375 -9.078125 C 6.285156 -9.410156 5.765625 -9.578125 5.046875 -9.578125 L 2.59375 -9.578125 Z M 2.59375 -6.015625 "/></g></g></g><g fill="#ddc6a4" fill-opacity="1"><g transform="translate(113.762271, 201.024832)"><g><path d="M 8.34375 -10.734375 L 9.640625 -10.734375 L 9.640625 -3.625 C 9.640625 -2.820312 9.445312 -2.132812 9.0625 -1.5625 C 8.6875 -1 8.179688 -0.566406 7.546875 -0.265625 C 6.910156 0.0351562 6.21875 0.1875 5.46875 0.1875 C 4.71875 0.1875 4.023438 0.0351562 3.390625 -0.265625 C 2.753906 -0.566406 2.242188 -1 1.859375 -1.5625 C 1.484375 -2.132812 1.296875 -2.820312 1.296875 -3.625 L 1.296875 -10.734375 L 2.59375 -10.734375 L 2.59375 -3.625 C 2.59375 -3.0625 2.722656 -2.585938 2.984375 -2.203125 C 3.253906 -1.816406 3.609375 -1.523438 4.046875 -1.328125 C 4.484375 -1.128906 4.957031 -1.03125 5.46875 -1.03125 C 5.976562 -1.03125 6.453125 -1.128906 6.890625 -1.328125 C 7.328125 -1.523438 7.675781 -1.816406 7.9375 -2.203125 C 8.207031 -2.585938 8.34375 -3.0625 8.34375 -3.625 Z M 8.34375 -10.734375 "/></g></g></g><g fill="#ddc6a4" fill-opacity="1"><g transform="translate(127.702405, 201.024832)"><g><path d="M 2.59375 -10.734375 L 2.59375 0 L 1.296875 0 L 1.296875 -10.734375 Z M 2.59375 -10.734375 "/></g></g></g><g fill="#ddc6a4" fill-opacity="1"><g transform="translate(134.606519, 201.024832)"><g><path d="M 1.296875 0 L 1.296875 -10.734375 L 2.59375 -10.734375 L 2.59375 -1.15625 L 7.578125 -1.15625 L 7.578125 0 Z M 1.296875 0 "/></g></g></g><g fill="#ddc6a4" fill-opacity="1"><g transform="translate(145.908148, 201.024832)"><g><path d="M 4.609375 0 L 1.296875 0 L 1.296875 -10.734375 L 4.75 -10.734375 C 5.789062 -10.734375 6.679688 -10.515625 7.421875 -10.078125 C 8.160156 -9.648438 8.726562 -9.035156 9.125 -8.234375 C 9.519531 -7.441406 9.71875 -6.492188 9.71875 -5.390625 C 9.71875 -4.265625 9.519531 -3.300781 9.125 -2.5 C 8.726562 -1.695312 8.148438 -1.078125 7.390625 -0.640625 C 6.628906 -0.210938 5.703125 0 4.609375 0 Z M 2.59375 -1.15625 L 4.53125 -1.15625 C 5.851562 -1.15625 6.835938 -1.53125 7.484375 -2.28125 C 8.140625 -3.039062 8.46875 -4.078125 8.46875 -5.390625 C 8.46875 -6.679688 8.148438 -7.703125 7.515625 -8.453125 C 6.878906 -9.203125 5.929688 -9.578125 4.671875 -9.578125 L 2.59375 -9.578125 Z M 2.59375 -1.15625 "/></g></g></g><g fill="#ddc6a4" fill-opacity="1"><g transform="translate(159.513233, 201.024832)"><g><path d="M 2.59375 -10.734375 L 2.59375 0 L 1.296875 0 L 1.296875 -10.734375 Z M 2.59375 -10.734375 "/></g></g></g><g fill="#ddc6a4" fill-opacity="1"><g transform="translate(166.417345, 201.024832)"><g><path d="M 9.8125 -10.734375 L 9.8125 0 L 8.546875 0 L 2.703125 -8.421875 L 2.59375 -8.421875 L 2.59375 0 L 1.296875 0 L 1.296875 -10.734375 L 2.5625 -10.734375 L 8.421875 -2.28125 L 8.53125 -2.28125 L 8.53125 -10.734375 Z M 9.8125 -10.734375 "/></g></g></g><g fill="#ddc6a4" fill-opacity="1"><g transform="translate(180.525008, 201.024832)"><g><path d="M 8.625 -7.375 C 8.40625 -8.082031 8.035156 -8.640625 7.515625 -9.046875 C 6.992188 -9.453125 6.347656 -9.65625 5.578125 -9.65625 C 4.941406 -9.65625 4.363281 -9.488281 3.84375 -9.15625 C 3.320312 -8.832031 2.90625 -8.347656 2.59375 -7.703125 C 2.289062 -7.066406 2.140625 -6.285156 2.140625 -5.359375 C 2.140625 -4.429688 2.289062 -3.644531 2.59375 -3 C 2.90625 -2.363281 3.328125 -1.878906 3.859375 -1.546875 C 4.390625 -1.222656 4.988281 -1.0625 5.65625 -1.0625 C 6.257812 -1.0625 6.796875 -1.191406 7.265625 -1.453125 C 7.734375 -1.710938 8.097656 -2.078125 8.359375 -2.546875 C 8.617188 -3.015625 8.757812 -3.570312 8.78125 -4.21875 L 5.953125 -4.21875 L 5.953125 -5.359375 L 10.03125 -5.359375 L 10.03125 -4.21875 C 10.03125 -3.332031 9.84375 -2.5625 9.46875 -1.90625 C 9.09375 -1.25 8.578125 -0.742188 7.921875 -0.390625 C 7.265625 -0.0351562 6.507812 0.140625 5.65625 0.140625 C 4.707031 0.140625 3.875 -0.078125 3.15625 -0.515625 C 2.4375 -0.960938 1.875 -1.597656 1.46875 -2.421875 C 1.070312 -3.253906 0.875 -4.234375 0.875 -5.359375 C 0.875 -6.492188 1.070312 -7.472656 1.46875 -8.296875 C 1.875 -9.117188 2.429688 -9.753906 3.140625 -10.203125 C 3.847656 -10.648438 4.660156 -10.875 5.578125 -10.875 C 6.328125 -10.875 7.007812 -10.722656 7.625 -10.421875 C 8.238281 -10.128906 8.75 -9.71875 9.15625 -9.1875 C 9.570312 -8.664062 9.84375 -8.0625 9.96875 -7.375 Z M 8.625 -7.375 "/></g></g></g><g fill="#ddc6a4" fill-opacity="1"><g transform="translate(194.486084, 201.024832)"><g/></g></g><g fill="#ddc6a4" fill-opacity="1"><g transform="translate(201.641484, 201.024832)"><g><path d="M 7.171875 -8.046875 C 7.109375 -8.578125 6.851562 -8.988281 6.40625 -9.28125 C 5.957031 -9.570312 5.40625 -9.71875 4.75 -9.71875 C 4.039062 -9.71875 3.46875 -9.546875 3.03125 -9.203125 C 2.601562 -8.867188 2.390625 -8.445312 2.390625 -7.9375 C 2.390625 -7.550781 2.503906 -7.238281 2.734375 -7 C 2.972656 -6.769531 3.253906 -6.585938 3.578125 -6.453125 C 3.898438 -6.328125 4.195312 -6.226562 4.46875 -6.15625 L 5.546875 -5.859375 C 5.828125 -5.785156 6.140625 -5.6875 6.484375 -5.5625 C 6.828125 -5.4375 7.15625 -5.257812 7.46875 -5.03125 C 7.789062 -4.8125 8.050781 -4.53125 8.25 -4.1875 C 8.457031 -3.84375 8.5625 -3.414062 8.5625 -2.90625 C 8.5625 -2.332031 8.410156 -1.8125 8.109375 -1.34375 C 7.804688 -0.875 7.363281 -0.5 6.78125 -0.21875 C 6.207031 0.0507812 5.507812 0.1875 4.6875 0.1875 C 3.539062 0.1875 2.628906 -0.0820312 1.953125 -0.625 C 1.273438 -1.175781 0.90625 -1.890625 0.84375 -2.765625 L 2.171875 -2.765625 C 2.210938 -2.359375 2.351562 -2.019531 2.59375 -1.75 C 2.832031 -1.488281 3.132812 -1.296875 3.5 -1.171875 C 3.863281 -1.046875 4.257812 -0.984375 4.6875 -0.984375 C 5.1875 -0.984375 5.632812 -1.0625 6.03125 -1.21875 C 6.425781 -1.382812 6.738281 -1.613281 6.96875 -1.90625 C 7.195312 -2.195312 7.3125 -2.539062 7.3125 -2.9375 C 7.3125 -3.289062 7.210938 -3.578125 7.015625 -3.796875 C 6.816406 -4.023438 6.550781 -4.207031 6.21875 -4.34375 C 5.894531 -4.488281 5.546875 -4.613281 5.171875 -4.71875 L 3.859375 -5.09375 C 3.015625 -5.332031 2.347656 -5.675781 1.859375 -6.125 C 1.367188 -6.570312 1.125 -7.15625 1.125 -7.875 C 1.125 -8.476562 1.285156 -9.003906 1.609375 -9.453125 C 1.941406 -9.898438 2.382812 -10.25 2.9375 -10.5 C 3.488281 -10.75 4.109375 -10.875 4.796875 -10.875 C 5.484375 -10.875 6.097656 -10.75 6.640625 -10.5 C 7.179688 -10.257812 7.609375 -9.925781 7.921875 -9.5 C 8.234375 -9.070312 8.398438 -8.585938 8.421875 -8.046875 Z M 7.171875 -8.046875 "/></g></g></g><g fill="#ddc6a4" fill-opacity="1"><g transform="translate(214.052967, 201.024832)"><g><path d="M 8.34375 -10.734375 L 9.640625 -10.734375 L 9.640625 -3.625 C 9.640625 -2.820312 9.445312 -2.132812 9.0625 -1.5625 C 8.6875 -1 8.179688 -0.566406 7.546875 -0.265625 C 6.910156 0.0351562 6.21875 0.1875 5.46875 0.1875 C 4.71875 0.1875 4.023438 0.0351562 3.390625 -0.265625 C 2.753906 -0.566406 2.242188 -1 1.859375 -1.5625 C 1.484375 -2.132812 1.296875 -2.820312 1.296875 -3.625 L 1.296875 -10.734375 L 2.59375 -10.734375 L 2.59375 -3.625 C 2.59375 -3.0625 2.722656 -2.585938 2.984375 -2.203125 C 3.253906 -1.816406 3.609375 -1.523438 4.046875 -1.328125 C 4.484375 -1.128906 4.957031 -1.03125 5.46875 -1.03125 C 5.976562 -1.03125 6.453125 -1.128906 6.890625 -1.328125 C 7.328125 -1.523438 7.675781 -1.816406 7.9375 -2.203125 C 8.207031 -2.585938 8.34375 -3.0625 8.34375 -3.625 Z M 8.34375 -10.734375 "/></g></g></g><g fill="#ddc6a4" fill-opacity="1"><g transform="translate(227.993106, 201.024832)"><g><path d="M 1.296875 0 L 1.296875 -10.734375 L 4.921875 -10.734375 C 5.765625 -10.734375 6.453125 -10.582031 6.984375 -10.28125 C 7.523438 -9.976562 7.921875 -9.566406 8.171875 -9.046875 C 8.429688 -8.535156 8.5625 -7.960938 8.5625 -7.328125 C 8.5625 -6.703125 8.429688 -6.128906 8.171875 -5.609375 C 7.921875 -5.085938 7.53125 -4.675781 7 -4.375 C 6.46875 -4.070312 5.78125 -3.921875 4.9375 -3.921875 L 2.59375 -3.921875 L 2.59375 0 Z M 2.59375 -5.0625 L 4.90625 -5.0625 C 5.769531 -5.0625 6.382812 -5.28125 6.75 -5.71875 C 7.113281 -6.15625 7.296875 -6.691406 7.296875 -7.328125 C 7.296875 -7.972656 7.109375 -8.507812 6.734375 -8.9375 C 6.367188 -9.363281 5.75 -9.578125 4.875 -9.578125 L 2.59375 -9.578125 Z M 2.59375 -5.0625 "/></g></g></g><g fill="#ddc6a4" fill-opacity="1"><g transform="translate(240.362704, 201.024832)"><g><path d="M 1.296875 0 L 1.296875 -10.734375 L 4.921875 -10.734375 C 5.765625 -10.734375 6.453125 -10.582031 6.984375 -10.28125 C 7.523438 -9.976562 7.921875 -9.566406 8.171875 -9.046875 C 8.429688 -8.535156 8.5625 -7.960938 8.5625 -7.328125 C 8.5625 -6.703125 8.429688 -6.128906 8.171875 -5.609375 C 7.921875 -5.085938 7.53125 -4.675781 7 -4.375 C 6.46875 -4.070312 5.78125 -3.921875 4.9375 -3.921875 L 2.59375 -3.921875 L 2.59375 0 Z M 2.59375 -5.0625 L 4.90625 -5.0625 C 5.769531 -5.0625 6.382812 -5.28125 6.75 -5.71875 C 7.113281 -6.15625 7.296875 -6.691406 7.296875 -7.328125 C 7.296875 -7.972656 7.109375 -8.507812 6.734375 -8.9375 C 6.367188 -9.363281 5.75 -9.578125 4.875 -9.578125 L 2.59375 -9.578125 Z M 2.59375 -5.0625 "/></g></g></g><g fill="#ddc6a4" fill-opacity="1"><g transform="translate(252.732301, 201.024832)"><g><path d="M 1.296875 0 L 1.296875 -10.734375 L 2.59375 -10.734375 L 2.59375 -1.15625 L 7.578125 -1.15625 L 7.578125 0 Z M 1.296875 0 "/></g></g></g><g fill="#ddc6a4" fill-opacity="1"><g transform="translate(264.033936, 201.024832)"><g><path d="M 0.375 -10.734375 L 1.859375 -10.734375 L 4.84375 -5.71875 L 4.96875 -5.71875 L 7.9375 -10.734375 L 9.421875 -10.734375 L 5.546875 -4.421875 L 5.546875 0 L 4.25 0 L 4.25 -4.421875 Z M 0.375 -10.734375 "/></g></g></g></svg>