<svg xmlns="http://www.w3.org/2000/svg" xmlns:xlink="http://www.w3.org/1999/xlink" width="500" zoomAndPan="magnify" viewBox="0 0 375 374.999991" height="500" preserveAspectRatio="xMidYMid meet" version="1.0"><defs><g/><clipPath id="b5c063f27b"><path d="M 116.496094 107.988281 L 258.246094 107.988281 L 258.246094 157 L 116.496094 157 Z M 116.496094 107.988281 " clip-rule="nonzero"/></clipPath><clipPath id="16c00e89c1"><path d="M 116.496094 197 L 258.246094 197 L 258.246094 249.738281 L 116.496094 249.738281 Z M 116.496094 197 " clip-rule="nonzero"/></clipPath></defs><rect x="-37.5" width="450" fill="#ffffff" y="-37.499999" height="449.999989" fill-opacity="1"/><rect x="-37.5" width="450" fill="#ffffff" y="-37.499999" height="449.999989" fill-opacity="1"/><rect x="-37.5" width="450" fill="#fdfdfb" y="-37.499999" height="449.999989" fill-opacity="1"/><g clip-path="url(#b5c063f27b)"><path fill="#4e1a3d" d="M 258.246094 156.484375 L 255.644531 156.484375 L 255.644531 110.589844 L 119.097656 110.589844 L 119.097656 156.484375 L 116.496094 156.484375 L 116.496094 107.988281 L 258.246094 107.988281 L 258.246094 156.484375 " fill-opacity="1" fill-rule="nonzero"/></g><g clip-path="url(#16c00e89c1)"><path fill="#4e1a3d" d="M 258.246094 249.738281 L 116.496094 249.738281 L 116.496094 197.171875 L 119.097656 197.171875 L 119.097656 247.136719 L 255.644531 247.136719 L 255.644531 197.171875 L 258.246094 197.171875 L 258.246094 249.738281 " fill-opacity="1" fill-rule="nonzero"/></g><g fill="#4e1a3d" fill-opacity="1"><g transform="translate(167.75928, 168.849995)"><g><path d="M 9.3125 -2.484375 C 11.40625 -2.484375 12.859375 -3.53125 13.671875 -5.625 L 16.671875 -4.484375 C 16.023438 -2.890625 15.070312 -1.703125 13.8125 -0.921875 C 12.5625 -0.148438 11.0625 0.234375 9.3125 0.234375 C 6.65625 0.234375 4.601562 -0.515625 3.15625 -2.015625 C 1.707031 -3.523438 0.984375 -5.628906 0.984375 -8.328125 C 0.984375 -11.046875 1.679688 -13.128906 3.078125 -14.578125 C 4.484375 -16.035156 6.515625 -16.765625 9.171875 -16.765625 C 11.109375 -16.765625 12.6875 -16.375 13.90625 -15.59375 C 15.125 -14.8125 15.976562 -13.671875 16.46875 -12.171875 L 13.421875 -11.328125 C 13.160156 -12.160156 12.648438 -12.820312 11.890625 -13.3125 C 11.140625 -13.800781 10.253906 -14.046875 9.234375 -14.046875 C 7.671875 -14.046875 6.484375 -13.5625 5.671875 -12.59375 C 4.867188 -11.625 4.46875 -10.203125 4.46875 -8.328125 C 4.46875 -6.429688 4.882812 -4.984375 5.71875 -3.984375 C 6.550781 -2.984375 7.75 -2.484375 9.3125 -2.484375 Z M 9.3125 -2.484375 "/></g></g></g><g fill="#4e1a3d" fill-opacity="1"><g transform="translate(189.89131, 168.849995)"><g><path d="M 13.28125 0 L 11.8125 -4.21875 L 5.515625 -4.21875 L 4.0625 0 L 0.59375 0 L 6.625 -16.515625 L 10.703125 -16.515625 L 16.703125 0 Z M 8.65625 -13.96875 L 8.59375 -13.71875 C 8.507812 -13.4375 8.410156 -13.113281 8.296875 -12.75 C 8.191406 -12.394531 7.523438 -10.421875 6.296875 -6.828125 L 11.046875 -6.828125 L 9.40625 -11.5625 L 8.90625 -13.15625 Z M 8.65625 -13.96875 "/></g></g></g><g fill="#4e1a3d" fill-opacity="1"><g transform="translate(99.248933, 187.549996)"><g><path d="M 9.46875 -2.75 C 9.46875 -1.875 9.140625 -1.195312 8.484375 -0.71875 C 7.828125 -0.238281 6.914062 0 5.75 0 L 0.9375 0 L 0.9375 -9.625 L 5.34375 -9.625 C 6.519531 -9.625 7.410156 -9.421875 8.015625 -9.015625 C 8.617188 -8.609375 8.921875 -8.007812 8.921875 -7.21875 C 8.921875 -6.664062 8.769531 -6.203125 8.46875 -5.828125 C 8.164062 -5.453125 7.703125 -5.195312 7.078125 -5.0625 C 7.859375 -4.96875 8.453125 -4.722656 8.859375 -4.328125 C 9.265625 -3.929688 9.46875 -3.40625 9.46875 -2.75 Z M 6.890625 -6.9375 C 6.890625 -7.375 6.75 -7.679688 6.46875 -7.859375 C 6.195312 -8.046875 5.789062 -8.140625 5.25 -8.140625 L 2.953125 -8.140625 L 2.953125 -5.75 L 5.265625 -5.75 C 5.835938 -5.75 6.25 -5.847656 6.5 -6.046875 C 6.757812 -6.242188 6.890625 -6.539062 6.890625 -6.9375 Z M 7.453125 -2.90625 C 7.453125 -3.8125 6.804688 -4.265625 5.515625 -4.265625 L 2.953125 -4.265625 L 2.953125 -1.5 L 5.578125 -1.5 C 6.234375 -1.5 6.707031 -1.613281 7 -1.84375 C 7.300781 -2.082031 7.453125 -2.4375 7.453125 -2.90625 Z M 7.453125 -2.90625 "/></g></g></g><g fill="#4e1a3d" fill-opacity="1"><g transform="translate(112.853628, 187.549996)"><g><path d="M 4.9375 0.140625 C 3.613281 0.140625 2.597656 -0.179688 1.890625 -0.828125 C 1.191406 -1.484375 0.84375 -2.410156 0.84375 -3.609375 L 0.84375 -9.625 L 2.859375 -9.625 L 2.859375 -3.765625 C 2.859375 -3.003906 3.035156 -2.425781 3.390625 -2.03125 C 3.753906 -1.632812 4.289062 -1.4375 5 -1.4375 C 5.71875 -1.4375 6.269531 -1.644531 6.65625 -2.0625 C 7.039062 -2.476562 7.234375 -3.066406 7.234375 -3.828125 L 7.234375 -9.625 L 9.25 -9.625 L 9.25 -3.71875 C 9.25 -2.488281 8.875 -1.535156 8.125 -0.859375 C 7.375 -0.191406 6.3125 0.140625 4.9375 0.140625 Z M 4.9375 0.140625 "/></g></g></g><g fill="#4e1a3d" fill-opacity="1"><g transform="translate(126.458323, 187.549996)"><g><path d="M 0.9375 0 L 0.9375 -9.625 L 2.953125 -9.625 L 2.953125 0 Z M 0.9375 0 "/></g></g></g><g fill="#4e1a3d" fill-opacity="1"><g transform="translate(133.845787, 187.549996)"><g><path d="M 0.9375 0 L 0.9375 -9.625 L 2.953125 -9.625 L 2.953125 -1.5625 L 8.125 -1.5625 L 8.125 0 Z M 0.9375 0 "/></g></g></g><g fill="#4e1a3d" fill-opacity="1"><g transform="translate(145.892759, 187.549996)"><g><path d="M 9.515625 -4.890625 C 9.515625 -3.890625 9.320312 -3.019531 8.9375 -2.28125 C 8.550781 -1.539062 8 -0.972656 7.28125 -0.578125 C 6.570312 -0.191406 5.753906 0 4.828125 0 L 0.9375 0 L 0.9375 -9.625 L 4.421875 -9.625 C 6.046875 -9.625 7.300781 -9.210938 8.1875 -8.390625 C 9.070312 -7.578125 9.515625 -6.410156 9.515625 -4.890625 Z M 7.5 -4.890625 C 7.5 -5.921875 7.226562 -6.707031 6.6875 -7.25 C 6.144531 -7.800781 5.375 -8.078125 4.375 -8.078125 L 2.953125 -8.078125 L 2.953125 -1.5625 L 4.65625 -1.5625 C 5.53125 -1.5625 6.222656 -1.859375 6.734375 -2.453125 C 7.242188 -3.046875 7.5 -3.859375 7.5 -4.890625 Z M 7.5 -4.890625 "/></g></g></g><g fill="#4e1a3d" fill-opacity="1"><g transform="translate(159.497454, 187.549996)"><g><path d="M 0.9375 0 L 0.9375 -9.625 L 2.953125 -9.625 L 2.953125 0 Z M 0.9375 0 "/></g></g></g><g fill="#4e1a3d" fill-opacity="1"><g transform="translate(166.884918, 187.549996)"><g><path d="M 6.796875 0 L 2.609375 -7.421875 C 2.691406 -6.703125 2.734375 -6.125 2.734375 -5.6875 L 2.734375 0 L 0.9375 0 L 0.9375 -9.625 L 3.234375 -9.625 L 7.5 -2.15625 C 7.414062 -2.84375 7.375 -3.46875 7.375 -4.03125 L 7.375 -9.625 L 9.171875 -9.625 L 9.171875 0 Z M 6.796875 0 "/></g></g></g><g fill="#4e1a3d" fill-opacity="1"><g transform="translate(180.489614, 187.549996)"><g><path d="M 5.515625 -1.4375 C 6.035156 -1.4375 6.539062 -1.515625 7.03125 -1.671875 C 7.519531 -1.828125 7.898438 -2.019531 8.171875 -2.25 L 8.171875 -3.59375 L 5.828125 -3.59375 L 5.828125 -5.078125 L 10.015625 -5.078125 L 10.015625 -1.53125 C 9.503906 -1.007812 8.835938 -0.597656 8.015625 -0.296875 C 7.203125 -0.00390625 6.347656 0.140625 5.453125 0.140625 C 3.890625 0.140625 2.6875 -0.289062 1.84375 -1.15625 C 1 -2.03125 0.578125 -3.265625 0.578125 -4.859375 C 0.578125 -6.441406 1 -7.65625 1.84375 -8.5 C 2.695312 -9.351562 3.914062 -9.78125 5.5 -9.78125 C 7.757812 -9.78125 9.195312 -8.941406 9.8125 -7.265625 L 7.953125 -6.703125 C 7.753906 -7.191406 7.441406 -7.5625 7.015625 -7.8125 C 6.585938 -8.0625 6.082031 -8.1875 5.5 -8.1875 C 4.550781 -8.1875 3.832031 -7.898438 3.34375 -7.328125 C 2.851562 -6.753906 2.609375 -5.929688 2.609375 -4.859375 C 2.609375 -3.773438 2.859375 -2.929688 3.359375 -2.328125 C 3.867188 -1.734375 4.585938 -1.4375 5.515625 -1.4375 Z M 5.515625 -1.4375 "/></g></g></g><g fill="#4e1a3d" fill-opacity="1"><g transform="translate(194.873171, 187.549996)"><g/></g></g><g fill="#4e1a3d" fill-opacity="1"><g transform="translate(202.260641, 187.549996)"><g><path d="M 8.796875 -2.78125 C 8.796875 -1.832031 8.441406 -1.109375 7.734375 -0.609375 C 7.035156 -0.109375 6.007812 0.140625 4.65625 0.140625 C 3.425781 0.140625 2.457031 -0.078125 1.75 -0.515625 C 1.050781 -0.953125 0.601562 -1.617188 0.40625 -2.515625 L 2.359375 -2.828125 C 2.484375 -2.316406 2.738281 -1.945312 3.125 -1.71875 C 3.507812 -1.488281 4.039062 -1.375 4.71875 -1.375 C 6.125 -1.375 6.828125 -1.800781 6.828125 -2.65625 C 6.828125 -2.925781 6.742188 -3.148438 6.578125 -3.328125 C 6.421875 -3.515625 6.195312 -3.664062 5.90625 -3.78125 C 5.613281 -3.894531 5.050781 -4.039062 4.21875 -4.21875 C 3.488281 -4.382812 2.984375 -4.515625 2.703125 -4.609375 C 2.421875 -4.710938 2.164062 -4.832031 1.9375 -4.96875 C 1.707031 -5.113281 1.515625 -5.285156 1.359375 -5.484375 C 1.203125 -5.679688 1.078125 -5.910156 0.984375 -6.171875 C 0.898438 -6.429688 0.859375 -6.734375 0.859375 -7.078125 C 0.859375 -7.953125 1.179688 -8.617188 1.828125 -9.078125 C 2.484375 -9.546875 3.4375 -9.78125 4.6875 -9.78125 C 5.882812 -9.78125 6.78125 -9.59375 7.375 -9.21875 C 7.976562 -8.84375 8.363281 -8.222656 8.53125 -7.359375 L 6.578125 -7.09375 C 6.484375 -7.507812 6.28125 -7.820312 5.96875 -8.03125 C 5.664062 -8.238281 5.226562 -8.34375 4.65625 -8.34375 C 3.425781 -8.34375 2.8125 -7.960938 2.8125 -7.203125 C 2.8125 -6.953125 2.875 -6.742188 3 -6.578125 C 3.132812 -6.421875 3.328125 -6.285156 3.578125 -6.171875 C 3.835938 -6.066406 4.359375 -5.925781 5.140625 -5.75 C 6.066406 -5.5625 6.726562 -5.382812 7.125 -5.21875 C 7.519531 -5.050781 7.832031 -4.851562 8.0625 -4.625 C 8.300781 -4.40625 8.484375 -4.140625 8.609375 -3.828125 C 8.734375 -3.523438 8.796875 -3.175781 8.796875 -2.78125 Z M 8.796875 -2.78125 "/></g></g></g><g fill="#4e1a3d" fill-opacity="1"><g transform="translate(215.093301, 187.549996)"><g><path d="M 4.9375 0.140625 C 3.613281 0.140625 2.597656 -0.179688 1.890625 -0.828125 C 1.191406 -1.484375 0.84375 -2.410156 0.84375 -3.609375 L 0.84375 -9.625 L 2.859375 -9.625 L 2.859375 -3.765625 C 2.859375 -3.003906 3.035156 -2.425781 3.390625 -2.03125 C 3.753906 -1.632812 4.289062 -1.4375 5 -1.4375 C 5.71875 -1.4375 6.269531 -1.644531 6.65625 -2.0625 C 7.039062 -2.476562 7.234375 -3.066406 7.234375 -3.828125 L 7.234375 -9.625 L 9.25 -9.625 L 9.25 -3.71875 C 9.25 -2.488281 8.875 -1.535156 8.125 -0.859375 C 7.375 -0.191406 6.3125 0.140625 4.9375 0.140625 Z M 4.9375 0.140625 "/></g></g></g><g fill="#4e1a3d" fill-opacity="1"><g transform="translate(228.69799, 187.549996)"><g><path d="M 8.859375 -6.578125 C 8.859375 -5.960938 8.71875 -5.410156 8.4375 -4.921875 C 8.15625 -4.429688 7.75 -4.050781 7.21875 -3.78125 C 6.695312 -3.519531 6.070312 -3.390625 5.34375 -3.390625 L 2.953125 -3.390625 L 2.953125 0 L 0.9375 0 L 0.9375 -9.625 L 5.265625 -9.625 C 6.421875 -9.625 7.304688 -9.359375 7.921875 -8.828125 C 8.546875 -8.304688 8.859375 -7.554688 8.859375 -6.578125 Z M 6.828125 -6.546875 C 6.828125 -7.554688 6.226562 -8.0625 5.03125 -8.0625 L 2.953125 -8.0625 L 2.953125 -4.9375 L 5.09375 -4.9375 C 5.644531 -4.9375 6.070312 -5.070312 6.375 -5.34375 C 6.675781 -5.625 6.828125 -6.023438 6.828125 -6.546875 Z M 6.828125 -6.546875 "/></g></g></g><g fill="#4e1a3d" fill-opacity="1"><g transform="translate(241.530661, 187.549996)"><g><path d="M 8.859375 -6.578125 C 8.859375 -5.960938 8.71875 -5.410156 8.4375 -4.921875 C 8.15625 -4.429688 7.75 -4.050781 7.21875 -3.78125 C 6.695312 -3.519531 6.070312 -3.390625 5.34375 -3.390625 L 2.953125 -3.390625 L 2.953125 0 L 0.9375 0 L 0.9375 -9.625 L 5.265625 -9.625 C 6.421875 -9.625 7.304688 -9.359375 7.921875 -8.828125 C 8.546875 -8.304688 8.859375 -7.554688 8.859375 -6.578125 Z M 6.828125 -6.546875 C 6.828125 -7.554688 6.226562 -8.0625 5.03125 -8.0625 L 2.953125 -8.0625 L 2.953125 -4.9375 L 5.09375 -4.9375 C 5.644531 -4.9375 6.070312 -5.070312 6.375 -5.34375 C 6.675781 -5.625 6.828125 -6.023438 6.828125 -6.546875 Z M 6.828125 -6.546875 "/></g></g></g><g fill="#4e1a3d" fill-opacity="1"><g transform="translate(254.363332, 187.549996)"><g><path d="M 0.9375 0 L 0.9375 -9.625 L 2.953125 -9.625 L 2.953125 -1.5625 L 8.125 -1.5625 L 8.125 0 Z M 0.9375 0 "/></g></g></g><g fill="#4e1a3d" fill-opacity="1"><g transform="translate(266.410298, 187.549996)"><g><path d="M 5.6875 -3.953125 L 5.6875 0 L 3.671875 0 L 3.671875 -3.953125 L 0.234375 -9.625 L 2.359375 -9.625 L 4.65625 -5.5625 L 7 -9.625 L 9.109375 -9.625 Z M 5.6875 -3.953125 "/></g></g></g></svg>