<svg xmlns="http://www.w3.org/2000/svg" version="1.1" xmlns:xlink="http://www.w3.org/1999/xlink" xmlns:svgjs="http://svgjs.dev/svgjs" width="1000" height="1000" viewBox="0 0 1000 1000"><rect width="1000" height="1000" fill="#000000"></rect><g transform="matrix(0.7,0,0,0.7,149.57575757575756,435.8965806889112)"><svg viewBox="0 0 396 73" data-background-color="#ffffff" preserveAspectRatio="xMidYMid meet" height="184" width="1000" xmlns="http://www.w3.org/2000/svg" xmlns:xlink="http://www.w3.org/1999/xlink"><g id="tight-bounds" transform="matrix(1,0,0,1,0.2400000000000091,-0.16809309231763336)"><svg viewBox="0 0 395.52 73.33618618463524" height="73.33618618463524" width="395.52"><g><svg viewBox="0 0 395.52 73.33618618463524" height="73.33618618463524" width="395.52"><g><svg viewBox="0 0 395.52 73.33618618463524" height="73.33618618463524" width="395.52"><g id="textblocktransform"><svg viewBox="0 0 395.52 73.33618618463524" height="73.33618618463524" width="395.52" id="textblock"><g><svg viewBox="0 0 395.52 73.33618618463524" height="73.33618618463524" width="395.52"><rect width="395.52" height="73.33618618463524" x="0" y="0" opacity="1" fill="#ffffff" data-fill-palette-color="tertiary"></rect><g transform="matrix(1,0,0,1,23.607599999999998,23.607599999999994)"><svg width="348.3048" viewBox="0.9000000357627869 -34.150001525878906 464.6600036621094 34.85000228881836" height="26.12098618463525" data-palette-color="#ffffff"><path d="M25.8-9.45L25.95-0.65Q20.65 0.65 15.1 0.65 9.55 0.65 6.55-0.93 3.55-2.5 2.23-6.2 0.9-9.9 0.9-16.85L0.9-16.85Q0.9-26.8 3.98-30.48 7.05-34.15 15.7-34.15L15.7-34.15Q19.3-34.15 24.2-33.15L24.2-33.15 25.95-32.8 25.65-23.85Q21.55-24.35 18.07-24.35 14.6-24.35 13.6-23.03 12.6-21.7 12.6-17.55 12.6-13.4 13.08-11.8 13.55-10.2 14.6-9.68 15.65-9.15 18-9.15L18-9.15 25.8-9.45ZM37.8 0L26.4 0 33.8-33.5 51.35-33.5 58.9 0 47.2 0 46.25-3.85 38.6-3.85 37.8 0ZM43.25-24.4L42-24.4 40.1-12.7 45.05-12.7 43.25-24.4ZM70.84 0L70.84-33.5 85.99-33.5Q98.24-33.5 98.24-25.2L98.24-25.2Q98.24-22.05 97.57-20.35 96.89-18.65 94.79-17.15L94.79-17.15Q97.24-16.1 98.17-14.58 99.09-13.05 99.09-9.5L99.09-9.5Q99.09 0 86.19 0L86.19 0 70.84 0ZM85.14-13.25L85.14-13.25 82.44-13.25 82.44-7.75 85.14-7.75Q86.89-7.75 87.49-8.33 88.09-8.9 88.09-10.48 88.09-12.05 87.44-12.65 86.79-13.25 85.14-13.25ZM84.99-25.85L84.99-25.85 82.44-25.85 82.44-20.5 85.04-20.5Q86.54-20.5 87.14-21.15 87.74-21.8 87.74-23.23 87.74-24.65 87.09-25.25 86.44-25.85 84.99-25.85ZM100.99-33.5L112.59-33.5 112.59-11.55Q112.59-10.1 113.31-9.5 114.04-8.9 115.74-8.9 117.44-8.9 118.14-9.5 118.84-10.1 118.84-11.55L118.84-11.55 118.84-33.5 130.44-33.5 130.44-12.2Q130.44-5.1 126.89-2.23 123.34 0.65 115.72 0.65 108.09 0.65 104.54-2.15 100.99-4.95 100.99-12L100.99-12 100.99-33.5ZM144.84 0L133.24 0 133.24-33.5 144.84-33.5 144.84 0ZM170.34-9.45L170.34 0 147.84 0 147.84-33.5 159.44-33.5 159.44-9.45 170.34-9.45ZM186.93 0L186.93 0 172.28 0 172.28-33.5 186.43-33.5Q195.08-33.5 198.88-29.6 202.68-25.7 202.68-17.13 202.68-8.55 199.03-4.28 195.38 0 186.93 0ZM190.98-16.55Q190.98-21.05 190.06-22.55 189.13-24.05 185.93-24.05L185.93-24.05 183.88-24.05 183.88-9.45 185.93-9.45Q188.53-9.45 189.78-10.75L189.78-10.75Q190.98-12.05 190.98-16.55ZM216.58 0L204.98 0 204.98-33.5 216.58-33.5 216.58 0ZM231.18 0L219.58 0 219.58-33.5 230.98-33.5 238.68-20.8 239.38-20.8 239.38-33.5 250.98-33.5 250.98 0 239.53 0 231.93-13.65 231.18-13.65 231.18 0ZM269.73-19.7L282.08-19.7 282.08-1Q273.03 0.45 268.68 0.45 264.33 0.45 261.25-0.53 258.18-1.5 256.43-3.75 254.68-6 254-9.05 253.33-12.1 253.33-16.8L253.33-16.8Q253.33-26.45 256.93-30.3 260.53-34.15 269.08-34.15L269.08-34.15Q271.63-34.15 274.83-33.73 278.03-33.3 279.93-32.9L279.93-32.9 281.83-32.45 281.83-23.7Q274.63-24.35 271.6-24.35 268.58-24.35 267.65-24.08 266.73-23.8 266.18-23.43 265.63-23.05 265.38-21.95L265.38-21.95Q265.03-20.4 265.03-16.5 265.03-12.6 265.93-10.83 266.83-9.05 269.58-9.05L269.58-9.05 271.28-9.1 271.28-11.6 269.78-11.6 269.73-19.7ZM321.47-32.85L321.17-23.85Q314.12-24.6 310.92-24.6 307.72-24.6 307.19-24.43 306.67-24.25 306.67-23.7 306.67-23.15 307.27-22.85 307.87-22.55 311.05-21.85 314.22-21.15 316.25-20.48 318.27-19.8 319.9-18.57 321.52-17.35 322.05-15.58 322.57-13.8 322.57-10.8L322.57-10.8Q322.57-4.6 319.27-1.95 315.97 0.7 309.32 0.7L309.32 0.7Q306.12 0.7 302.6 0.25 299.07-0.2 297.17-0.65L297.17-0.65 295.22-1.1 295.72-9.95Q303.37-8.85 308.27-8.85L308.27-8.85Q310.87-8.85 310.87-10L310.87-10Q310.87-10.5 310.27-10.73 309.67-10.95 307.02-11.35L307.02-11.35Q300.02-12.45 297.5-14.78 294.97-17.1 294.97-22.4L294.97-22.4Q294.97-29.15 298.22-31.65 301.47-34.15 308.22-34.15L308.22-34.15Q312.97-34.15 319.37-33.2L319.37-33.2 321.47-32.85ZM324.37-33.5L335.97-33.5 335.97-11.55Q335.97-10.1 336.69-9.5 337.42-8.9 339.12-8.9 340.82-8.9 341.52-9.5 342.22-10.1 342.22-11.55L342.22-11.55 342.22-33.5 353.82-33.5 353.82-12.2Q353.82-5.1 350.27-2.23 346.72 0.65 339.09 0.65 331.47 0.65 327.92-2.15 324.37-4.95 324.37-12L324.37-12 324.37-33.5ZM369.76-7.1L369.76-7.1 368.22-7.1 368.22 0 356.62 0 356.62-33.5 369.76-33.5Q377.72-33.5 381.34-30.75 384.97-28 384.97-20.43 384.97-12.85 381.31-9.98 377.67-7.1 369.76-7.1ZM368.22-24.35L368.22-16.25 369.26-16.25Q371.42-16.25 372.34-17.2 373.26-18.15 373.26-20.45 373.26-22.75 372.39-23.55 371.51-24.35 369.26-24.35L369.26-24.35 368.22-24.35ZM400.36-7.1L400.36-7.1 398.81-7.1 398.81 0 387.21 0 387.21-33.5 400.36-33.5Q408.31-33.5 411.94-30.75 415.56-28 415.56-20.43 415.56-12.85 411.91-9.98 408.26-7.1 400.36-7.1ZM398.81-24.35L398.81-16.25 399.86-16.25Q402.01-16.25 402.94-17.2 403.86-18.15 403.86-20.45 403.86-22.75 402.99-23.55 402.11-24.35 399.86-24.35L399.86-24.35 398.81-24.35ZM440.31-9.45L440.31 0 417.81 0 417.81-33.5 429.41-33.5 429.41-9.45 440.31-9.45ZM455.76-10.5L455.76 0 444.16 0 444.16-10.5 434.61-33.5 446.91-33.5 450.06-23.65 453.31-33.5 465.56-33.5 455.76-10.5Z" opacity="1" transform="matrix(1,0,0,1,0,0)" fill="#000000" class="undefined-text-0" data-fill-palette-color="quaternary" id="text-0"></path></svg></g></svg></g></svg></g></svg></g></svg></g><defs></defs></svg><rect width="395.52" height="73.33618618463524" fill="none" stroke="none" visibility="hidden"></rect></g></svg></g></svg>